# Blender v2.81 (sub 16) OBJ File: ''
# www.blender.org
mtllib myfurnace.mtl
o furnace
v 100.685699 38.275402 -118.492302
v 40.685699 38.275402 -118.492302
v 40.685699 48.000004 -118.492302
v 100.685699 48.000004 -118.492302
v 100.685699 0.000005 -118.492302
v 40.685699 0.000005 -118.492302
v 52.685699 4.000002 -44.492298
v 52.685699 4.000002 -45.492298
v 88.685699 4.000002 -45.492298
v 88.685699 4.000002 -44.492298
v 88.685699 6.000002 -44.492298
v 88.685699 6.000002 -45.492298
v 79.685699 50.000004 -83.367302
v 79.685699 50.000004 -58.492294
v 100.685699 50.000004 -58.492294
v 100.685699 50.000004 -118.492302
v 61.685699 50.000004 -83.367302
v 40.685699 50.000004 -118.492302
v 61.685699 50.000004 -58.492294
v 40.685699 50.000004 -58.492294
v 40.685699 16.000002 -45.492298
v 40.685699 18.000002 -45.492298
v 67.514503 98.000000 -85.252289
v 40.685699 98.000008 -118.492294
v 40.685699 98.000000 -58.492294
v 100.685699 98.000000 -58.492294
v 74.035797 98.000000 -85.252289
v 74.035797 98.000008 -91.932693
v 100.685699 98.000008 -118.492294
v 67.514503 98.000008 -91.932693
v 52.685699 6.000002 -44.492298
v 52.685699 6.000002 -45.492298
v 40.685699 0.000002 -45.492298
v 100.685699 0.000002 -45.492298
v 40.685699 48.000004 -119.492302
v 39.685699 48.000004 -119.492302
v 39.685699 50.000004 -119.492302
v 100.685699 48.000004 -119.492302
v 101.685699 48.000004 -119.492302
v 101.685699 50.000004 -119.492302
v 40.685699 50.000004 -119.492302
v 100.685699 50.000004 -119.492302
v 52.685699 6.000004 -87.617302
v 88.685699 6.000004 -87.617302
v 39.685699 98.000000 -58.492294
v 39.685699 98.000008 -119.492294
v 40.685699 98.000008 -119.492294
v 101.685699 50.000004 -44.492294
v 101.685699 48.000004 -44.492294
v 67.514503 112.000000 -85.252289
v 66.685699 112.000008 -92.492294
v 66.685699 112.000000 -84.492294
v 74.685699 112.000000 -84.492294
v 74.035797 112.000000 -85.252289
v 67.514503 112.000008 -91.932693
v 39.685699 48.000004 -44.492294
v 39.685699 50.000004 -44.492294
v 39.685699 50.000004 -58.492294
v 39.685699 48.000004 -58.492294
v 74.035797 112.000008 -91.932693
v 74.685699 112.000008 -92.492294
v 40.685699 48.000004 -44.492294
v 40.685699 48.000004 -45.492294
v 100.685699 48.000004 -45.492294
v 100.685699 48.000004 -44.492294
v 39.685699 98.000000 -57.492294
v 101.685699 98.000000 -57.492294
v 101.685699 100.000000 -57.492294
v 39.685699 100.000000 -57.492294
v 100.685699 98.000008 -119.492294
v 101.685699 98.000008 -119.492294
v 101.685699 98.000000 -58.492294
v 39.685699 100.000008 -119.492294
v 66.685699 100.000000 -84.492294
v 74.685699 100.000000 -84.492294
v 74.685699 100.000008 -92.492294
v 101.685699 100.000008 -119.492294
v 66.685699 100.000008 -92.492294
v 40.685699 48.000004 -58.492294
v 88.685699 36.000004 -45.492298
v 85.734299 36.692703 -45.492298
v 82.756401 37.261105 -45.492298
v 79.757301 37.704304 -45.492298
v 76.742302 38.021404 -45.492298
v 73.716698 38.211903 -45.492298
v 70.685699 38.275402 -45.492298
v 67.654701 38.211903 -45.492298
v 64.629097 38.021404 -45.492298
v 61.614101 37.704304 -45.492298
v 58.615002 37.261105 -45.492298
v 55.637100 36.692703 -45.492298
v 52.685699 36.000004 -45.492298
v 79.685699 56.000004 -58.492294
v 78.783096 57.680904 -58.492294
v 77.570396 59.153904 -58.492294
v 76.094002 60.362503 -58.492294
v 74.410599 61.260403 -58.492294
v 72.584503 61.813305 -58.492294
v 70.685699 62.000004 -58.492294
v 68.786903 61.813305 -58.492294
v 66.960800 61.260403 -58.492294
v 65.277397 60.362503 -58.492294
v 63.800999 59.153904 -58.492294
v 62.588299 57.680904 -58.492294
v 61.685699 56.000004 -58.492294
v 61.685699 56.000004 -83.367302
v 79.685699 56.000004 -83.367302
v 78.783096 57.680904 -83.367302
v 62.588299 57.680904 -83.367302
v 77.570396 59.153904 -83.367302
v 63.800999 59.153904 -83.367302
v 76.094002 60.362503 -83.367302
v 65.277397 60.362503 -83.367302
v 74.410599 61.260403 -83.367302
v 66.960800 61.260403 -83.367302
v 72.584503 61.813305 -83.367302
v 68.786903 61.813305 -83.367302
v 70.685699 62.000004 -83.367302
v 52.685699 36.000004 -87.617302
v 88.685699 36.000004 -87.617302
vt 0.000000 0.000000
vt 0.000000 0.000000
vt 0.000000 0.000000
vt 0.000000 0.000000
vt 0.000000 0.000000
vt 0.000000 0.000000
vt 0.000000 0.000000
vt 0.000000 0.000000
vt 0.000000 0.000000
vt 0.000000 0.000000
vt 0.000000 0.000000
vt 0.000000 0.000000
vt 0.000000 0.000000
vt 0.000000 0.000000
vt 0.000000 0.000000
vt 0.000000 0.000000
vt 0.000000 0.000000
vt 0.000000 0.000000
vt 0.000000 0.000000
vt 0.000000 0.000000
vt 0.000000 0.000000
vt 0.000000 0.000000
vt 0.000000 0.000000
vt 0.000000 0.000000
vt 0.000000 0.000000
vt 0.000000 0.000000
vt 0.000000 0.000000
vt 0.000000 0.000000
vt 0.000000 0.000000
vt 0.000000 0.000000
vt 0.000000 0.000000
vt 0.000000 0.000000
vt -0.352900 1.000000
vt -0.332100 1.000000
vt -0.332100 1.041700
vt -1.602900 1.000000
vt -1.623800 1.000000
vt -1.623800 1.041700
vt -0.352900 1.041700
vt -1.602900 1.041700
vt 0.602900 -1.524900
vt 0.602900 -1.545800
vt 1.352900 -1.545800
vt 0.602900 -0.647300
vt 1.352900 -0.647300
vt 1.352900 -1.524900
vt -0.332100 -1.254100
vt -0.332100 0.016700
vt -0.352900 0.016700
vt -0.352900 -1.254100
vt -0.352900 -0.004100
vt -1.545800 1.041700
vt -1.545800 1.000000
vt 0.016700 1.000000
vt 0.016700 1.041700
vt 0.911900 -0.696600
vt 0.894600 -0.545800
vt 0.894600 -0.712400
vt 1.061300 -0.712400
vt 1.047700 -0.696600
vt 0.911900 -0.557400
vt 0.352900 0.016700
vt 0.352900 -0.004100
vt 1.602900 -0.004100
vt 1.602900 0.016700
vt 1.545800 1.000000
vt 1.545800 1.041700
vt 1.254100 1.041700
vt 1.254100 1.000000
vt -0.016700 1.041700
vt -0.016700 1.000000
vt 1.047700 -0.557400
vt 1.061300 -0.545800
vt 0.696600 2.041700
vt 0.696600 2.333300
vt 0.557400 2.333300
vt 0.557400 2.041700
vt 0.911900 2.041700
vt 1.047700 2.041700
vt 1.047700 2.333300
vt 0.911900 2.333300
vt -0.696600 2.333300
vt -0.696600 2.041700
vt -0.557400 2.041700
vt -0.557400 2.333300
vt -1.047700 2.041700
vt -0.911900 2.041700
vt -0.911900 2.333300
vt -1.047700 2.333300
vt -0.352900 -1.545800
vt -0.352900 -1.524900
vt -1.602900 -1.524900
vt -1.602900 -1.545800
vt -0.352900 -0.004100
vt -0.352900 0.016700
vt -1.602900 0.016700
vt -1.602900 -0.004100
vt 0.332100 2.041700
vt 1.623800 2.041700
vt 1.623800 2.083300
vt 0.332100 2.083300
vt 0.602900 0.083300
vt 1.352900 0.083300
vt 1.352900 0.125000
vt 0.602900 0.125000
vt 0.332100 0.016700
vt 0.332100 -1.254100
vt 0.352900 -1.254100
vt 1.602900 1.000000
vt 1.623800 1.000000
vt 1.623800 1.041700
vt 0.352900 1.000000
vt 0.332100 1.000000
vt 0.332100 1.041700
vt -1.602900 0.016700
vt -1.602900 -0.004100
vt 0.332100 -1.545800
vt 1.623800 -1.545800
vt 0.790400 -1.254100
vt 1.165400 -1.254100
vt 1.602900 -1.254100
vt 1.623800 0.016700
vt 0.790400 -0.735900
vt 1.165400 -0.735900
vt -1.623800 0.016700
vt -1.602900 -1.254100
vt -1.623800 -1.254100
vt -1.623800 0.016700
vt -1.623800 -1.545800
vt 1.274900 2.041700
vt 1.274900 2.083300
vt -0.016700 2.083300
vt 1.254100 2.041700
vt -0.016700 2.041700
vt -0.332100 -1.274900
vt -1.623800 -1.274900
vt 0.894600 -0.712400
vt 0.332100 0.016700
vt 0.332100 -1.274900
vt 1.623800 -1.274900
vt 1.061300 -0.712400
vt 1.061300 -0.545800
vt 1.623800 0.016700
vt 0.894600 -0.545800
vt -1.274900 2.083300
vt -1.274900 2.041700
vt -1.254100 2.041700
vt 0.016700 2.083300
vt 0.016700 2.041700
vt -0.332100 -1.545800
vt -0.332100 -1.254100
vt -0.352900 -1.254100
vt -0.352900 2.041700
vt -0.332100 2.041700
vt -0.332100 2.083300
vt -1.602900 2.041700
vt -1.623800 2.041700
vt -1.623800 2.083300
vt -0.332100 0.016700
vt 2.705900 0.166700
vt 0.705900 0.000000
vt 3.205900 0.000000
vt 3.205900 2.000000
vt 2.705900 0.250000
vt 2.705900 1.500000
vt 2.582900 1.528900
vt 2.458800 1.552500
vt 2.333800 1.571000
vt 2.208200 1.584200
vt 2.082200 1.592200
vt 1.955900 1.594800
vt 0.705900 2.000000
vt 1.829600 1.592200
vt 1.703500 1.584200
vt 1.577900 1.571000
vt 1.452900 1.552500
vt 1.328800 1.528900
vt 1.205900 1.500000
vt 0.705900 0.750000
vt 0.705900 0.666700
vt 1.205900 0.250000
vt 1.205900 0.166700
vt 3.049800 0.750000
vt 3.049800 2.000000
vt 2.508200 2.000000
vt 3.049800 0.666700
vt 3.049800 0.000000
vt 0.008200 0.000000
vt 0.008200 2.000000
vt 0.008200 1.594800
vt 1.424800 4.166700
vt 1.424800 4.666700
vt 1.091500 4.666700
vt 1.091500 4.166700
vt -2.508200 4.083300
vt -2.508200 2.083300
vt -0.008200 2.083300
vt -0.008200 4.083300
vt 1.789200 4.166700
vt 2.122500 4.166700
vt 2.122500 4.666700
vt 1.789200 4.666700
vt -1.424800 4.666700
vt -1.424800 4.166700
vt -1.091500 4.166700
vt -1.091500 4.666700
vt -2.122500 4.166700
vt -1.789200 4.166700
vt -1.789200 4.666700
vt -2.122500 4.666700
vt 2.508200 2.083300
vt 2.508200 4.083300
vt 0.008200 4.083300
vt 0.008200 2.083300
vt -3.049800 2.000000
vt -3.049800 0.000000
vt -0.008200 0.000000
vt -0.008200 2.000000
vt -0.008200 1.594800
vt 2.330900 2.083300
vt 3.205900 2.083300
vt 3.205900 4.083300
vt 2.330900 2.333300
vt 2.293300 2.403400
vt 2.242700 2.464700
vt 2.181200 2.515100
vt 2.111100 2.552500
vt 2.035000 2.575600
vt 1.955900 2.583300
vt 0.705900 4.083300
vt 1.876700 2.575600
vt 1.800700 2.552500
vt 1.730500 2.515100
vt 1.669000 2.464700
vt 1.618500 2.403400
vt 1.580900 2.333300
vt 0.705900 2.083300
vt 1.580900 2.083300
vt -2.508200 2.333300
vt -2.508200 2.083300
vt -1.471700 2.083300
vt -1.471700 2.333300
vt 1.580900 2.083300
vt 2.330900 2.083300
vt 2.330900 2.333300
vt 1.580900 2.333300
vt 2.293300 2.403400
vt 1.618500 2.403400
vt 2.242700 2.464700
vt 1.669000 2.464700
vt 2.181200 2.515100
vt 1.730500 2.515100
vt 2.111100 2.552500
vt 1.800700 2.552500
vt 2.035000 2.575600
vt 1.876700 2.575600
vt 1.955900 2.583300
vt -3.049800 1.500000
vt -3.049800 0.250000
vt -1.294600 0.250000
vt -1.294600 1.500000
vt 1.205900 0.250000
vt 2.705900 0.250000
vt 2.705900 1.500000
vt 1.205900 1.500000
vt 2.508200 2.083300
vt 2.508200 2.333300
vt 1.471700 2.333300
vt 1.471700 2.083300
vt 3.049800 0.250000
vt 3.049800 1.500000
vt 1.294600 1.500000
vt 1.294600 0.250000
vt 0.557400 1.036500
vt 0.557400 -0.000000
vt 0.637000 -0.000000
vt 0.637000 1.036500
vt 0.238900 1.036500
vt 0.238900 0.000000
vt 0.318500 0.000000
vt 0.318500 1.036500
vt 0.955500 1.036500
vt 0.875900 1.036500
vt 0.875900 0.000000
vt 0.955500 0.000000
vt 0.398100 1.036500
vt 0.398100 0.000000
vt 0.477800 0.000000
vt 0.477800 1.036500
vt 0.716600 0.000000
vt 0.716600 1.036500
vt 0.079600 1.036500
vt 0.000000 1.036500
vt 0.000000 0.000000
vt 0.079600 0.000000
vt 0.796300 1.036500
vt 0.796300 0.000000
vt 0.159300 1.036500
vt 0.159300 0.000000
vn 0.0000 0.0000 -1.0000
vn 0.0000 -1.0000 0.0000
vn 1.0000 0.0000 0.0000
vn 0.0000 1.0000 -0.0000
vn -1.0000 0.0000 0.0000
vn -0.0129 0.9999 0.0000
vn 0.0000 0.4472 -0.8944
vn 0.0000 0.0000 1.0000
vn -0.1948 -0.9809 0.0000
vn -0.3820 -0.9241 0.0000
vn 0.5547 -0.8321 0.0000
vn 0.3820 -0.9241 0.0000
vn -0.8810 -0.4731 0.0000
vn -0.8305 -0.5570 0.0000
vn 0.1948 -0.9809 0.0000
vn -0.5547 -0.8321 0.0000
vn 0.8305 -0.5570 0.0000
vn 0.8810 -0.4731 0.0000
vn -0.7061 -0.7081 0.0000
vn 0.7061 -0.7081 0.0000
usemtl wire_177028149
s 1
f 1/1/1 2/2/1 3/3/1 4/4/1
f 5/5/1 6/6/1 2/2/1 1/1/1
f 7/7/2 8/8/2 9/9/2 10/10/2
f 11/11/3 10/10/3 9/9/3 12/12/3
f 13/13/4 14/14/4 15/15/4 16/16/4
f 17/17/4 13/13/4 16/16/4 18/18/4
f 19/19/4 17/17/4 18/18/4 20/20/4
f 23/21/4 24/22/4 25/23/4 26/24/4
f 27/25/4 23/21/4 26/24/4 28/26/4
f 28/26/4 26/24/4 29/27/4 30/28/4
f 30/28/4 29/27/4 24/22/4 23/21/4
f 7/7/5 31/29/5 32/30/5 8/8/5
f 16/16/1 18/18/1 24/22/1 29/27/1
f 33/31/2 6/6/2 5/5/2 34/32/2
f 35/33/1 36/34/1 37/35/1 38/36/1
f 39/37/1 38/36/1 37/35/1 40/38/1
f 40/38/1 37/35/1 41/39/1 42/40/1
f 32/41/4 31/42/4 11/43/4 43/44/4
f 44/45/4 43/44/4 11/43/4 12/46/4
f 45/47/2 46/48/2 47/49/2 25/50/2
f 25/50/2 47/49/2 24/51/6
f 48/52/3 49/53/3 39/54/3 40/55/3
f 50/56/4 51/57/4 52/58/4 53/59/4
f 50/56/4 53/59/4 54/60/4
f 55/61/4 51/57/4 50/56/4
f 41/62/4 18/63/7 16/64/4 42/65/4
f 56/66/5 57/67/5 58/68/5 59/69/5
f 59/69/5 58/68/5 37/70/5 36/71/5
f 60/72/4 54/60/4 53/59/4 61/73/4
f 55/61/4 60/72/4 61/73/4 51/57/4
f 27/74/5 54/75/5 60/76/5 28/77/5
f 30/78/8 28/79/8 60/80/8 55/81/8
f 50/82/3 23/83/3 30/84/3 55/85/3
f 27/86/1 23/87/1 50/88/1 54/89/1
f 62/90/2 63/91/2 64/92/2 65/93/2
f 3/94/4 35/95/2 38/96/2 4/97/2
f 66/98/8 67/99/8 68/100/8 69/101/8
f 7/102/8 10/103/8 11/104/8 31/105/8
f 37/106/4 58/107/4 20/108/4 41/62/4
f 41/62/4 20/108/4 18/63/7
f 65/109/8 49/110/8 48/111/8 62/112/8
f 56/113/8 62/112/8 48/111/8 57/114/8
f 24/51/6 47/49/2 70/115/2 29/116/2
f 58/107/4 57/117/4 48/118/4 20/108/4
f 19/119/4 20/108/4 48/118/4 14/120/4
f 15/121/4 14/120/4 48/118/4 16/64/4
f 42/65/4 16/64/4 48/118/4 40/122/4
f 17/123/4 19/119/4 14/120/4 13/124/4
f 29/116/2 70/115/2 71/125/2 26/126/2
f 26/126/2 71/125/2 72/127/2
f 4/97/2 38/96/2 39/128/2 64/92/2
f 65/93/2 64/92/2 39/128/2 49/129/2
f 66/130/5 69/131/5 73/132/5 45/133/5
f 45/133/5 73/132/5 46/134/5
f 66/135/2 45/47/2 25/50/2 67/136/2
f 67/136/2 25/50/2 26/126/2 72/127/2
f 74/137/4 73/138/4 69/139/4 68/140/4
f 75/141/4 74/137/4 68/140/4 76/142/4
f 76/142/4 68/140/4 77/143/4 78/144/4
f 78/144/4 77/143/4 73/138/4 74/137/4
f 68/145/3 67/146/3 72/147/3 77/148/3
f 77/148/3 72/147/3 71/149/3
f 56/150/2 59/151/2 79/152/2 62/90/2
f 62/90/2 79/152/2 63/91/2
f 47/153/1 46/154/1 73/155/1 70/156/1
f 71/157/1 70/156/1 73/155/1 77/158/1
f 59/151/2 36/159/2 35/95/2 79/152/2
f 79/152/2 35/95/2 3/94/4
f 9/160/8 33/161/8 34/162/8 64/163/8
f 12/164/8 9/160/8 64/163/8 80/165/8
f 81/166/8 80/165/8 64/163/8 82/167/8
f 83/168/8 82/167/8 64/163/8 84/169/8
f 85/170/8 84/169/8 64/163/8 86/171/8
f 86/171/8 64/163/8 63/172/8 87/173/8
f 88/174/8 87/173/8 63/172/8 89/175/8
f 90/176/8 89/175/8 63/172/8 91/177/8
f 92/178/8 91/177/8 63/172/8 22/179/8
f 92/178/8 22/179/8 21/180/8 32/181/8
f 8/182/8 32/181/8 21/180/8 33/161/8
f 8/182/8 33/161/8 9/160/8
f 22/183/5 63/184/5 79/185/5 21/186/5
f 33/187/5 21/186/5 79/185/5 6/188/5
f 6/188/5 79/185/5 3/189/5 2/190/5
f 74/191/5 52/192/5 51/193/5 78/194/5
f 26/195/3 15/196/3 16/197/3 29/198/3
f 74/199/8 75/200/8 53/201/8 52/202/8
f 53/203/3 75/204/3 76/205/3 61/206/3
f 76/207/1 78/208/1 51/209/1 61/210/1
f 20/211/5 25/212/5 24/213/5 18/214/5
f 64/215/3 34/216/3 5/217/3 4/218/3
f 4/218/3 5/217/3 1/219/3
f 14/220/8 15/221/8 26/222/8 93/223/8
f 94/224/8 93/223/8 26/222/8 95/225/8
f 96/226/8 95/225/8 26/222/8 97/227/8
f 98/228/8 97/227/8 26/222/8 99/229/8
f 99/229/8 26/222/8 25/230/8 100/231/8
f 101/232/8 100/231/8 25/230/8 102/233/8
f 103/234/8 102/233/8 25/230/8 104/235/8
f 105/236/8 104/235/8 25/230/8 20/237/8
f 105/236/8 20/237/8 19/238/8
f 105/239/3 19/240/3 17/241/3 106/242/3
f 17/243/8 13/244/8 107/245/8 106/246/8
f 106/246/8 107/245/8 108/247/8 109/248/8
f 109/248/8 108/247/8 110/249/8 111/250/8
f 111/250/8 110/249/8 112/251/8 113/252/8
f 113/252/8 112/251/8 114/253/8 115/254/8
f 115/254/8 114/253/8 116/255/8 117/256/8
f 117/256/8 116/255/8 118/257/8
f 92/258/3 32/259/3 43/260/3 119/261/3
f 43/262/8 44/263/8 120/264/8 119/265/8
f 14/266/5 93/267/5 107/268/5 13/269/5
f 12/270/5 80/271/5 120/272/5 44/273/5
f 98/274/9 116/275/9 114/276/10 97/277/10
f 102/278/11 113/279/11 115/280/12 101/281/12
f 93/282/13 94/283/14 108/284/14 107/285/13
f 100/286/15 117/287/15 118/288/2 99/289/2
f 101/281/12 115/280/12 117/287/15 100/286/15
f 97/277/10 114/276/10 112/290/16 96/291/16
f 104/292/17 105/293/18 106/294/18 109/295/17
f 99/289/2 118/288/2 116/275/9 98/274/9
f 94/283/14 95/296/19 110/297/19 108/284/14
f 96/291/16 112/290/16 110/297/19 95/296/19
f 103/298/20 111/299/20 113/279/11 102/278/11
f 103/298/20 104/292/17 109/295/17 111/299/20
